<svg width="391" height="95" viewBox="0 0 391 95" fill="none" xmlns="http://www.w3.org/2000/svg">
<path d="M115.275 48V14.4H127.275C131.147 14.4 134.347 15.136 136.875 16.608C139.435 18.08 141.339 20.08 142.587 22.608C143.867 25.136 144.507 28.016 144.507 31.248C144.507 34.448 143.867 37.312 142.587 39.84C141.339 42.368 139.435 44.368 136.875 45.84C134.347 47.28 131.147 48 127.275 48H115.275ZM126.459 20.448H121.995V41.952H126.459C129.115 41.952 131.259 41.488 132.891 40.56C134.523 39.6 135.707 38.32 136.443 36.72C137.179 35.088 137.547 33.264 137.547 31.248C137.547 29.2 137.179 27.376 136.443 25.776C135.707 24.144 134.523 22.848 132.891 21.888C131.259 20.928 129.115 20.448 126.459 20.448ZM159.091 48.624C156.531 48.624 154.275 48.032 152.323 46.848C150.371 45.664 148.851 44.096 147.763 42.144C146.707 40.16 146.179 37.968 146.179 35.568C146.179 33.168 146.739 30.976 147.859 28.992C148.979 26.976 150.499 25.376 152.419 24.192C154.371 23.008 156.595 22.416 159.091 22.416C161.587 22.416 163.779 23.008 165.667 24.192C167.587 25.376 169.075 26.976 170.131 28.992C171.219 30.976 171.763 33.168 171.763 35.568C171.763 35.92 171.747 36.288 171.715 36.672C171.683 37.056 171.635 37.456 171.571 37.872H152.899C153.251 39.344 153.955 40.544 155.011 41.472C156.099 42.4 157.459 42.864 159.091 42.864C160.499 42.864 161.715 42.544 162.739 41.904C163.795 41.264 164.611 40.464 165.187 39.504L170.227 43.296C169.235 44.864 167.747 46.144 165.763 47.136C163.779 48.128 161.555 48.624 159.091 48.624ZM158.995 27.984C157.459 27.984 156.147 28.448 155.059 29.376C153.971 30.304 153.251 31.52 152.899 33.024H165.235C164.883 31.648 164.147 30.464 163.027 29.472C161.939 28.48 160.595 27.984 158.995 27.984ZM186.231 48.624C183.671 48.624 181.415 48.032 179.463 46.848C177.511 45.664 175.991 44.096 174.903 42.144C173.847 40.16 173.319 37.968 173.319 35.568C173.319 33.168 173.879 30.976 174.999 28.992C176.119 26.976 177.639 25.376 179.559 24.192C181.511 23.008 183.735 22.416 186.231 22.416C188.727 22.416 190.919 23.008 192.807 24.192C194.727 25.376 196.215 26.976 197.271 28.992C198.359 30.976 198.903 33.168 198.903 35.568C198.903 35.92 198.887 36.288 198.855 36.672C198.823 37.056 198.775 37.456 198.711 37.872H180.039C180.391 39.344 181.095 40.544 182.151 41.472C183.239 42.4 184.599 42.864 186.231 42.864C187.639 42.864 188.855 42.544 189.879 41.904C190.935 41.264 191.751 40.464 192.327 39.504L197.367 43.296C196.375 44.864 194.887 46.144 192.903 47.136C190.919 48.128 188.695 48.624 186.231 48.624ZM186.135 27.984C184.599 27.984 183.287 28.448 182.199 29.376C181.111 30.304 180.391 31.52 180.039 33.024H192.375C192.023 31.648 191.287 30.464 190.167 29.472C189.079 28.48 187.735 27.984 186.135 27.984ZM201.748 57.6V23.04H208.132V27.072C208.804 25.696 209.748 24.592 210.964 23.76C212.212 22.928 213.924 22.512 216.1 22.512C217.828 22.512 219.428 22.864 220.9 23.568C222.404 24.24 223.716 25.184 224.836 26.4C225.956 27.584 226.836 28.976 227.476 30.576C228.116 32.144 228.436 33.824 228.436 35.616C228.436 38.016 227.876 40.208 226.756 42.192C225.668 44.144 224.196 45.712 222.34 46.896C220.484 48.048 218.404 48.624 216.1 48.624C213.956 48.624 212.276 48.24 211.06 47.472C209.844 46.672 208.9 45.616 208.228 44.304V57.6H201.748ZM215.044 42.768C216.42 42.768 217.62 42.432 218.644 41.76C219.7 41.088 220.516 40.208 221.092 39.12C221.668 38 221.956 36.816 221.956 35.568C221.956 34.256 221.668 33.056 221.092 31.968C220.516 30.88 219.7 30.016 218.644 29.376C217.62 28.704 216.42 28.368 215.044 28.368C213.636 28.368 212.404 28.704 211.348 29.376C210.292 30.048 209.476 30.928 208.9 32.016C208.324 33.104 208.036 34.304 208.036 35.616C208.036 36.896 208.324 38.08 208.9 39.168C209.476 40.256 210.292 41.136 211.348 41.808C212.404 42.448 213.636 42.768 215.044 42.768ZM231.806 48V14.4H236.894L253.262 33.84C253.646 34.288 254.014 34.752 254.366 35.232C254.75 35.68 255.118 36.144 255.47 36.624C255.374 35.92 255.31 35.088 255.278 34.128C255.246 33.136 255.23 32.144 255.23 31.152V14.4H261.374V48H257.006L240.014 27.792C239.63 27.344 239.246 26.896 238.862 26.448C238.51 25.968 238.158 25.488 237.806 25.008C237.902 25.712 237.966 26.56 237.998 27.552C238.03 28.512 238.046 29.488 238.046 30.48V48H231.806ZM277.062 48.624C274.79 48.624 272.71 48.048 270.822 46.896C268.966 45.712 267.478 44.144 266.358 42.192C265.27 40.208 264.726 38.016 264.726 35.616C264.726 33.824 265.046 32.144 265.686 30.576C266.326 28.976 267.206 27.584 268.326 26.4C269.446 25.184 270.742 24.24 272.214 23.568C273.718 22.864 275.334 22.512 277.062 22.512C279.238 22.512 280.934 22.928 282.15 23.76C283.366 24.56 284.31 25.632 284.982 26.976V23.04H291.414V48H285.126V43.92C284.454 45.328 283.494 46.464 282.246 47.328C281.03 48.192 279.302 48.624 277.062 48.624ZM278.118 42.768C279.558 42.768 280.79 42.448 281.814 41.808C282.87 41.136 283.686 40.256 284.262 39.168C284.838 38.08 285.126 36.896 285.126 35.616C285.126 34.304 284.838 33.104 284.262 32.016C283.686 30.928 282.87 30.048 281.814 29.376C280.79 28.704 279.558 28.368 278.118 28.368C276.742 28.368 275.526 28.704 274.47 29.376C273.446 30.016 272.646 30.88 272.07 31.968C271.494 33.056 271.206 34.256 271.206 35.568C271.206 36.816 271.494 38 272.07 39.12C272.646 40.208 273.446 41.088 274.47 41.76C275.526 42.432 276.742 42.768 278.118 42.768ZM295.744 48V14.4H300.832L317.2 33.84C317.584 34.288 317.952 34.752 318.304 35.232C318.688 35.68 319.056 36.144 319.408 36.624C319.312 35.92 319.248 35.088 319.216 34.128C319.184 33.136 319.168 32.144 319.168 31.152V14.4H325.312V48H320.944L303.952 27.792C303.568 27.344 303.184 26.896 302.8 26.448C302.448 25.968 302.096 25.488 301.744 25.008C301.84 25.712 301.904 26.56 301.936 27.552C301.968 28.512 301.984 29.488 301.984 30.48V48H295.744Z" fill="black"/>
<circle cx="74.5" cy="28.5" r="8.75" stroke="black" stroke-width="3.5"/>
<circle cx="104.5" cy="11.5" r="8.75" stroke="black" stroke-width="3.5"/>
<circle cx="100.5" cy="45.5" r="8.75" stroke="black" stroke-width="3.5"/>
<line x1="81.198" y1="24.4446" x2="97.198" y2="16.1946" stroke="black" stroke-width="3.5"/>
<line x1="81.9914" y1="33.3079" x2="93.9914" y2="41.5579" stroke="black" stroke-width="3.5"/>
<path d="M105.188 85.9868C105.188 86.4904 105.093 86.9386 104.905 87.3315C104.723 87.7244 104.465 88.0592 104.133 88.3359C103.807 88.6071 103.419 88.8118 102.971 88.9502C102.528 89.0885 102.05 89.1577 101.535 89.1577C101.175 89.1577 100.841 89.1273 100.531 89.0664C100.226 89.0055 99.9525 88.9308 99.709 88.8423C99.471 88.7537 99.269 88.6624 99.103 88.5684C98.9425 88.4743 98.8291 88.394 98.7627 88.3276C98.7018 88.2612 98.6548 88.1782 98.6216 88.0786C98.5939 87.9735 98.5801 87.8351 98.5801 87.6636C98.5801 87.5418 98.5856 87.4422 98.5967 87.3647C98.6077 87.2817 98.6243 87.2153 98.6465 87.1655C98.6686 87.1157 98.6963 87.0825 98.7295 87.0659C98.7627 87.0438 98.8014 87.0327 98.8457 87.0327C98.9232 87.0327 99.0311 87.0798 99.1694 87.1738C99.3133 87.2679 99.4959 87.3703 99.7173 87.481C99.9386 87.5916 100.204 87.6968 100.514 87.7964C100.83 87.8905 101.192 87.9375 101.602 87.9375C101.911 87.9375 102.194 87.896 102.448 87.813C102.708 87.73 102.93 87.6138 103.112 87.4644C103.3 87.3094 103.444 87.1213 103.544 86.8999C103.644 86.6785 103.693 86.4268 103.693 86.1445C103.693 85.8402 103.624 85.5801 103.486 85.3643C103.347 85.1484 103.165 84.9603 102.938 84.7998C102.711 84.6338 102.451 84.4844 102.158 84.3516C101.87 84.2132 101.574 84.0749 101.27 83.9365C100.965 83.7926 100.669 83.6349 100.381 83.4634C100.094 83.2918 99.8363 83.0898 99.6094 82.8574C99.3825 82.625 99.1971 82.3538 99.0532 82.0439C98.9149 81.7285 98.8457 81.3522 98.8457 80.915C98.8457 80.4668 98.9259 80.0684 99.0864 79.7197C99.2524 79.3656 99.4793 79.0695 99.7671 78.8315C100.06 78.5936 100.406 78.4137 100.805 78.292C101.209 78.1647 101.643 78.1011 102.108 78.1011C102.346 78.1011 102.584 78.1232 102.822 78.1675C103.065 78.2062 103.292 78.2616 103.502 78.3335C103.718 78.3999 103.909 78.4774 104.075 78.5659C104.241 78.6489 104.349 78.7181 104.399 78.7734C104.454 78.8232 104.49 78.8647 104.507 78.8979C104.523 78.9256 104.537 78.9644 104.548 79.0142C104.559 79.0584 104.568 79.1138 104.573 79.1802C104.579 79.2466 104.582 79.3324 104.582 79.4375C104.582 79.5371 104.576 79.6257 104.565 79.7031C104.559 79.7806 104.548 79.847 104.532 79.9023C104.515 79.9521 104.49 79.9909 104.457 80.0186C104.429 80.0407 104.396 80.0518 104.357 80.0518C104.297 80.0518 104.2 80.013 104.067 79.9355C103.94 79.8581 103.782 79.7723 103.594 79.6782C103.406 79.5786 103.181 79.4901 102.921 79.4126C102.667 79.3296 102.379 79.2881 102.058 79.2881C101.759 79.2881 101.499 79.3296 101.278 79.4126C101.056 79.4901 100.874 79.5952 100.73 79.728C100.586 79.8608 100.478 80.0186 100.406 80.2012C100.334 80.3838 100.298 80.5775 100.298 80.7822C100.298 81.0811 100.368 81.3384 100.506 81.5542C100.644 81.77 100.827 81.9609 101.054 82.127C101.286 82.293 101.549 82.4451 101.842 82.5835C102.136 82.7218 102.434 82.863 102.739 83.0068C103.043 83.1452 103.342 83.3001 103.635 83.4717C103.929 83.6377 104.189 83.8369 104.416 84.0693C104.648 84.2962 104.833 84.5674 104.972 84.8828C105.116 85.1927 105.188 85.5607 105.188 85.9868ZM110.284 89L109.288 91.7476C109.255 91.8361 109.169 91.9025 109.031 91.9468C108.898 91.9966 108.693 92.0215 108.417 92.0215C108.273 92.0215 108.156 92.0132 108.068 91.9966C107.979 91.9855 107.91 91.9634 107.86 91.9302C107.816 91.897 107.791 91.8527 107.786 91.7974C107.78 91.742 107.794 91.6756 107.827 91.5981L108.856 89C108.807 88.9779 108.76 88.9419 108.715 88.8921C108.671 88.8423 108.641 88.7897 108.624 88.7344L105.959 81.5957C105.915 81.4795 105.893 81.3882 105.893 81.3218C105.893 81.2554 105.915 81.2028 105.959 81.1641C106.004 81.1253 106.076 81.1004 106.175 81.0894C106.275 81.0728 106.408 81.0645 106.574 81.0645C106.74 81.0645 106.87 81.07 106.964 81.0811C107.058 81.0866 107.133 81.1004 107.188 81.1226C107.243 81.1447 107.282 81.1779 107.304 81.2222C107.332 81.2609 107.36 81.3162 107.387 81.3882L109.521 87.3813H109.545L111.604 81.355C111.637 81.2498 111.676 81.1834 111.72 81.1558C111.77 81.1226 111.842 81.1004 111.936 81.0894C112.03 81.0728 112.166 81.0645 112.343 81.0645C112.498 81.0645 112.625 81.0728 112.725 81.0894C112.824 81.1004 112.896 81.1253 112.94 81.1641C112.99 81.2028 113.015 81.2554 113.015 81.3218C113.015 81.3882 112.999 81.4712 112.965 81.5708L110.284 89ZM121.017 88.7925C121.017 88.8368 121.006 88.8755 120.984 88.9087C120.962 88.9364 120.926 88.9613 120.876 88.9834C120.826 89.0055 120.757 89.0221 120.668 89.0332C120.58 89.0443 120.469 89.0498 120.336 89.0498C120.198 89.0498 120.085 89.0443 119.996 89.0332C119.908 89.0221 119.838 89.0055 119.789 88.9834C119.739 88.9613 119.703 88.9364 119.681 88.9087C119.659 88.8755 119.647 88.8368 119.647 88.7925V84.418C119.647 83.9919 119.614 83.6488 119.548 83.3887C119.481 83.1286 119.385 82.9045 119.257 82.7163C119.13 82.5282 118.964 82.3843 118.759 82.2847C118.56 82.1851 118.328 82.1353 118.062 82.1353C117.719 82.1353 117.376 82.257 117.033 82.5005C116.69 82.744 116.33 83.1009 115.954 83.5713V88.7925C115.954 88.8368 115.943 88.8755 115.92 88.9087C115.898 88.9364 115.862 88.9613 115.812 88.9834C115.763 89.0055 115.694 89.0221 115.605 89.0332C115.516 89.0443 115.403 89.0498 115.265 89.0498C115.132 89.0498 115.021 89.0443 114.933 89.0332C114.844 89.0221 114.772 89.0055 114.717 88.9834C114.667 88.9613 114.631 88.9364 114.609 88.9087C114.592 88.8755 114.584 88.8368 114.584 88.7925V81.3218C114.584 81.2775 114.592 81.2415 114.609 81.2139C114.625 81.1807 114.659 81.153 114.708 81.1309C114.758 81.1032 114.822 81.0866 114.899 81.0811C114.977 81.07 115.079 81.0645 115.207 81.0645C115.328 81.0645 115.428 81.07 115.505 81.0811C115.588 81.0866 115.652 81.1032 115.696 81.1309C115.741 81.153 115.771 81.1807 115.788 81.2139C115.81 81.2415 115.821 81.2775 115.821 81.3218V82.3096C116.241 81.8392 116.659 81.4961 117.074 81.2803C117.495 81.0589 117.918 80.9482 118.344 80.9482C118.842 80.9482 119.26 81.034 119.598 81.2056C119.941 81.3716 120.217 81.5957 120.428 81.8779C120.638 82.1602 120.787 82.4922 120.876 82.874C120.97 83.2503 121.017 83.7041 121.017 84.2354V88.7925ZM128.886 87.6553C128.886 87.7493 128.883 87.8324 128.878 87.9043C128.872 87.9707 128.861 88.0288 128.845 88.0786C128.834 88.1229 128.817 88.1644 128.795 88.2031C128.778 88.2363 128.734 88.2889 128.662 88.3608C128.596 88.4272 128.479 88.513 128.313 88.6182C128.147 88.7178 127.959 88.8091 127.749 88.8921C127.544 88.9696 127.32 89.0332 127.077 89.083C126.833 89.1328 126.581 89.1577 126.321 89.1577C125.785 89.1577 125.309 89.0692 124.894 88.8921C124.479 88.715 124.13 88.4577 123.848 88.1201C123.571 87.777 123.358 87.3592 123.208 86.8667C123.065 86.3687 122.993 85.7959 122.993 85.1484C122.993 84.4124 123.081 83.7816 123.258 83.2559C123.441 82.7246 123.687 82.2902 123.997 81.9526C124.312 81.6151 124.681 81.366 125.101 81.2056C125.527 81.0396 125.986 80.9565 126.479 80.9565C126.717 80.9565 126.947 80.9787 127.168 81.0229C127.395 81.0672 127.602 81.1253 127.791 81.1973C127.979 81.2692 128.145 81.3522 128.289 81.4463C128.438 81.5404 128.546 81.6206 128.612 81.687C128.679 81.7534 128.723 81.806 128.745 81.8447C128.773 81.8835 128.795 81.9305 128.812 81.9858C128.828 82.0356 128.839 82.0938 128.845 82.1602C128.85 82.2266 128.853 82.3096 128.853 82.4092C128.853 82.625 128.828 82.7772 128.778 82.8657C128.729 82.9487 128.668 82.9902 128.596 82.9902C128.513 82.9902 128.416 82.946 128.305 82.8574C128.2 82.7633 128.064 82.661 127.898 82.5503C127.732 82.4396 127.53 82.34 127.292 82.2515C127.06 82.1574 126.783 82.1104 126.462 82.1104C125.804 82.1104 125.298 82.3649 124.943 82.874C124.595 83.3776 124.42 84.1108 124.42 85.0737C124.42 85.5552 124.465 85.9785 124.553 86.3438C124.647 86.7035 124.783 87.005 124.96 87.2485C125.137 87.492 125.353 87.6746 125.607 87.7964C125.868 87.9126 126.164 87.9707 126.496 87.9707C126.811 87.9707 127.088 87.9209 127.326 87.8213C127.564 87.7217 127.768 87.6138 127.94 87.4976C128.117 87.3758 128.264 87.2679 128.38 87.1738C128.502 87.0742 128.596 87.0244 128.662 87.0244C128.701 87.0244 128.734 87.0355 128.762 87.0576C128.789 87.0798 128.812 87.1185 128.828 87.1738C128.85 87.2236 128.864 87.29 128.87 87.373C128.881 87.4505 128.886 87.5446 128.886 87.6553ZM132.074 88.7925C132.074 88.8368 132.063 88.8755 132.041 88.9087C132.018 88.9364 131.982 88.9613 131.933 88.9834C131.883 89.0055 131.814 89.0221 131.725 89.0332C131.637 89.0443 131.523 89.0498 131.385 89.0498C131.252 89.0498 131.141 89.0443 131.053 89.0332C130.964 89.0221 130.892 89.0055 130.837 88.9834C130.787 88.9613 130.751 88.9364 130.729 88.9087C130.712 88.8755 130.704 88.8368 130.704 88.7925V81.3218C130.704 81.283 130.712 81.2471 130.729 81.2139C130.751 81.1807 130.787 81.153 130.837 81.1309C130.892 81.1087 130.964 81.0921 131.053 81.0811C131.141 81.07 131.252 81.0645 131.385 81.0645C131.523 81.0645 131.637 81.07 131.725 81.0811C131.814 81.0921 131.883 81.1087 131.933 81.1309C131.982 81.153 132.018 81.1807 132.041 81.2139C132.063 81.2471 132.074 81.283 132.074 81.3218V88.7925ZM132.231 78.7983C132.231 79.1193 132.171 79.3379 132.049 79.4541C131.927 79.5703 131.703 79.6284 131.376 79.6284C131.056 79.6284 130.834 79.5731 130.712 79.4624C130.596 79.3462 130.538 79.1304 130.538 78.8149C130.538 78.494 130.599 78.2754 130.721 78.1592C130.842 78.043 131.067 77.9849 131.393 77.9849C131.714 77.9849 131.933 78.043 132.049 78.1592C132.171 78.2699 132.231 78.4829 132.231 78.7983ZM141.039 88.7925C141.039 88.8368 141.028 88.8755 141.005 88.9087C140.983 88.9364 140.947 88.9613 140.897 88.9834C140.848 89.0055 140.778 89.0221 140.69 89.0332C140.601 89.0443 140.491 89.0498 140.358 89.0498C140.22 89.0498 140.106 89.0443 140.018 89.0332C139.929 89.0221 139.86 89.0055 139.81 88.9834C139.76 88.9613 139.724 88.9364 139.702 88.9087C139.68 88.8755 139.669 88.8368 139.669 88.7925V84.418C139.669 83.9919 139.636 83.6488 139.569 83.3887C139.503 83.1286 139.406 82.9045 139.279 82.7163C139.152 82.5282 138.986 82.3843 138.781 82.2847C138.582 82.1851 138.349 82.1353 138.083 82.1353C137.74 82.1353 137.397 82.257 137.054 82.5005C136.711 82.744 136.351 83.1009 135.975 83.5713V88.7925C135.975 88.8368 135.964 88.8755 135.942 88.9087C135.92 88.9364 135.884 88.9613 135.834 88.9834C135.784 89.0055 135.715 89.0221 135.626 89.0332C135.538 89.0443 135.424 89.0498 135.286 89.0498C135.153 89.0498 135.043 89.0443 134.954 89.0332C134.866 89.0221 134.794 89.0055 134.738 88.9834C134.688 88.9613 134.653 88.9364 134.63 88.9087C134.614 88.8755 134.605 88.8368 134.605 88.7925V81.3218C134.605 81.2775 134.614 81.2415 134.63 81.2139C134.647 81.1807 134.68 81.153 134.73 81.1309C134.78 81.1032 134.843 81.0866 134.921 81.0811C134.998 81.07 135.101 81.0645 135.228 81.0645C135.35 81.0645 135.449 81.07 135.527 81.0811C135.61 81.0866 135.674 81.1032 135.718 81.1309C135.762 81.153 135.792 81.1807 135.809 81.2139C135.831 81.2415 135.842 81.2775 135.842 81.3218V82.3096C136.263 81.8392 136.681 81.4961 137.096 81.2803C137.516 81.0589 137.94 80.9482 138.366 80.9482C138.864 80.9482 139.282 81.034 139.619 81.2056C139.962 81.3716 140.239 81.5957 140.449 81.8779C140.66 82.1602 140.809 82.4922 140.897 82.874C140.992 83.2503 141.039 83.7041 141.039 84.2354V88.7925ZM149.779 81.6621C149.779 81.8558 149.752 81.9969 149.696 82.0854C149.646 82.1685 149.58 82.21 149.497 82.21H148.426C148.62 82.4092 148.756 82.6305 148.833 82.874C148.91 83.112 148.949 83.361 148.949 83.6211C148.949 84.0527 148.88 84.4346 148.742 84.7666C148.603 85.0986 148.404 85.3809 148.144 85.6133C147.889 85.8402 147.585 86.0145 147.231 86.1362C146.877 86.258 146.484 86.3188 146.052 86.3188C145.748 86.3188 145.457 86.2801 145.181 86.2026C144.91 86.1196 144.699 86.0173 144.55 85.8955C144.45 85.9951 144.367 86.1086 144.301 86.2358C144.24 86.3631 144.209 86.5098 144.209 86.6758C144.209 86.8695 144.298 87.0299 144.475 87.1572C144.658 87.2845 144.898 87.3537 145.197 87.3647L147.148 87.4478C147.519 87.4588 147.859 87.5114 148.169 87.6055C148.479 87.694 148.747 87.8241 148.974 87.9956C149.201 88.1616 149.378 88.3691 149.505 88.6182C149.633 88.8617 149.696 89.1466 149.696 89.4731C149.696 89.8162 149.624 90.1427 149.48 90.4526C149.337 90.7625 149.115 91.0337 148.816 91.2661C148.523 91.5041 148.147 91.6895 147.688 91.8223C147.228 91.9606 146.686 92.0298 146.061 92.0298C145.457 92.0298 144.943 91.9772 144.517 91.8721C144.096 91.7725 143.75 91.6341 143.479 91.457C143.208 91.2799 143.011 91.0669 142.89 90.8179C142.768 90.5744 142.707 90.3088 142.707 90.021C142.707 89.8384 142.729 89.6613 142.773 89.4897C142.818 89.3182 142.884 89.1549 142.973 89C143.067 88.8451 143.18 88.6984 143.313 88.5601C143.451 88.4162 143.609 88.2751 143.786 88.1367C143.515 87.9984 143.313 87.8241 143.18 87.6138C143.053 87.4035 142.989 87.1766 142.989 86.9331C142.989 86.5955 143.058 86.2939 143.197 86.0283C143.335 85.7627 143.507 85.5247 143.711 85.3145C143.54 85.1097 143.404 84.88 143.305 84.6255C143.205 84.3654 143.155 84.0527 143.155 83.6875C143.155 83.2614 143.227 82.8796 143.371 82.542C143.515 82.2044 143.714 81.9194 143.969 81.687C144.223 81.4546 144.528 81.2775 144.882 81.1558C145.242 81.0285 145.632 80.9648 146.052 80.9648C146.279 80.9648 146.489 80.9787 146.683 81.0063C146.882 81.0285 147.068 81.0617 147.239 81.106H149.497C149.591 81.106 149.66 81.153 149.705 81.2471C149.754 81.3356 149.779 81.474 149.779 81.6621ZM147.638 83.6294C147.638 83.1203 147.497 82.7246 147.214 82.4424C146.938 82.1546 146.542 82.0107 146.027 82.0107C145.762 82.0107 145.529 82.055 145.33 82.1436C145.136 82.2321 144.973 82.3538 144.84 82.5088C144.713 82.6637 144.616 82.8436 144.55 83.0483C144.489 83.2476 144.458 83.4578 144.458 83.6792C144.458 84.1717 144.597 84.5591 144.874 84.8413C145.156 85.1235 145.549 85.2646 146.052 85.2646C146.323 85.2646 146.559 85.2231 146.758 85.1401C146.957 85.0516 147.12 84.9326 147.248 84.7832C147.38 84.6283 147.477 84.4512 147.538 84.252C147.604 84.0527 147.638 83.8452 147.638 83.6294ZM148.327 89.5479C148.327 89.2269 148.194 88.9806 147.928 88.8091C147.668 88.632 147.314 88.5379 146.866 88.5269L144.932 88.4604C144.755 88.5988 144.608 88.7316 144.492 88.8589C144.381 88.9806 144.292 89.0968 144.226 89.2075C144.16 89.3237 144.113 89.4372 144.085 89.5479C144.063 89.6585 144.052 89.772 144.052 89.8882C144.052 90.2479 144.234 90.519 144.6 90.7017C144.965 90.8898 145.474 90.9839 146.127 90.9839C146.542 90.9839 146.888 90.9424 147.165 90.8594C147.447 90.7819 147.674 90.6768 147.845 90.5439C148.017 90.4111 148.139 90.259 148.21 90.0874C148.288 89.9159 148.327 89.736 148.327 89.5479ZM158.977 84.8247V88.7842C158.977 88.8285 158.965 88.8672 158.943 88.9004C158.921 88.9336 158.882 88.9613 158.827 88.9834C158.772 89 158.697 89.0138 158.603 89.0249C158.509 89.0415 158.396 89.0498 158.263 89.0498C158.124 89.0498 158.008 89.0415 157.914 89.0249C157.826 89.0138 157.751 89 157.69 88.9834C157.635 88.9613 157.596 88.9336 157.574 88.9004C157.552 88.8672 157.541 88.8285 157.541 88.7842V84.8247L154.502 78.7651C154.442 78.6379 154.403 78.5382 154.386 78.4663C154.375 78.3944 154.389 78.339 154.428 78.3003C154.472 78.2616 154.547 78.2367 154.652 78.2256C154.763 78.2145 154.909 78.209 155.092 78.209C155.258 78.209 155.391 78.2145 155.49 78.2256C155.595 78.2367 155.678 78.2533 155.739 78.2754C155.8 78.292 155.844 78.3197 155.872 78.3584C155.905 78.3916 155.936 78.4359 155.963 78.4912L157.449 81.5791C157.588 81.8724 157.726 82.1795 157.864 82.5005C158.003 82.8215 158.144 83.1452 158.288 83.4717H158.304C158.431 83.1562 158.562 82.8436 158.694 82.5337C158.833 82.2183 158.971 81.9084 159.109 81.604L160.604 78.4995C160.62 78.4442 160.642 78.3971 160.67 78.3584C160.703 78.3197 160.745 78.292 160.794 78.2754C160.85 78.2533 160.924 78.2367 161.019 78.2256C161.113 78.2145 161.232 78.209 161.375 78.209C161.575 78.209 161.73 78.2173 161.84 78.2339C161.957 78.245 162.037 78.2699 162.081 78.3086C162.125 78.3473 162.139 78.4027 162.123 78.4746C162.111 78.5465 162.076 78.6434 162.015 78.7651L158.977 84.8247ZM169.361 84.9741C169.361 85.5828 169.281 86.1445 169.12 86.6592C168.96 87.1683 168.719 87.6082 168.398 87.979C168.083 88.3498 167.684 88.6403 167.203 88.8506C166.727 89.0553 166.173 89.1577 165.542 89.1577C164.928 89.1577 164.391 89.0664 163.932 88.8838C163.478 88.7012 163.099 88.4355 162.795 88.0869C162.491 87.7383 162.264 87.3149 162.114 86.8169C161.965 86.3188 161.89 85.7544 161.89 85.1235C161.89 84.5148 161.968 83.9559 162.123 83.4468C162.283 82.9321 162.521 82.4894 162.836 82.1187C163.157 81.7479 163.556 81.4601 164.032 81.2554C164.508 81.0506 165.064 80.9482 165.7 80.9482C166.314 80.9482 166.848 81.0396 167.302 81.2222C167.762 81.4048 168.143 81.6704 168.448 82.019C168.752 82.3677 168.979 82.791 169.128 83.2891C169.283 83.7871 169.361 84.3488 169.361 84.9741ZM167.917 85.0654C167.917 84.6615 167.878 84.2796 167.8 83.9199C167.728 83.5602 167.607 83.2448 167.435 82.9736C167.264 82.7025 167.031 82.4894 166.738 82.3345C166.444 82.174 166.079 82.0938 165.642 82.0938C165.238 82.0938 164.889 82.1657 164.596 82.3096C164.308 82.4535 164.07 82.6582 163.882 82.9238C163.694 83.1839 163.553 83.4938 163.459 83.8535C163.37 84.2132 163.326 84.6061 163.326 85.0322C163.326 85.4417 163.362 85.8263 163.434 86.186C163.512 86.5457 163.636 86.8612 163.808 87.1323C163.985 87.3979 164.22 87.611 164.513 87.7715C164.806 87.9264 165.172 88.0039 165.609 88.0039C166.007 88.0039 166.353 87.932 166.646 87.7881C166.94 87.6442 167.181 87.4422 167.369 87.1821C167.557 86.922 167.695 86.6121 167.784 86.2524C167.872 85.8927 167.917 85.4971 167.917 85.0654ZM177.778 88.7925C177.778 88.8368 177.767 88.8755 177.745 88.9087C177.728 88.9364 177.695 88.9613 177.645 88.9834C177.595 89.0055 177.529 89.0221 177.446 89.0332C177.368 89.0443 177.271 89.0498 177.155 89.0498C177.028 89.0498 176.923 89.0443 176.84 89.0332C176.762 89.0221 176.699 89.0055 176.649 88.9834C176.605 88.9613 176.574 88.9364 176.558 88.9087C176.541 88.8755 176.533 88.8368 176.533 88.7925V87.8047C176.107 88.2751 175.686 88.6182 175.271 88.834C174.856 89.0498 174.435 89.1577 174.009 89.1577C173.511 89.1577 173.091 89.0747 172.748 88.9087C172.41 88.7427 172.136 88.5186 171.926 88.2363C171.715 87.9486 171.563 87.6165 171.469 87.2402C171.381 86.8584 171.336 86.3963 171.336 85.854V81.3218C171.336 81.2775 171.345 81.2415 171.361 81.2139C171.383 81.1807 171.422 81.153 171.478 81.1309C171.533 81.1032 171.605 81.0866 171.693 81.0811C171.782 81.07 171.893 81.0645 172.025 81.0645C172.158 81.0645 172.269 81.07 172.357 81.0811C172.446 81.0866 172.515 81.1032 172.565 81.1309C172.62 81.153 172.659 81.1807 172.681 81.2139C172.703 81.2415 172.714 81.2775 172.714 81.3218V85.6714C172.714 86.1086 172.745 86.46 172.806 86.7256C172.872 86.9857 172.969 87.2098 173.096 87.3979C173.229 87.5806 173.395 87.7244 173.594 87.8296C173.793 87.9292 174.026 87.979 174.292 87.979C174.635 87.979 174.975 87.8573 175.312 87.6138C175.656 87.3703 176.018 87.0133 176.4 86.543V81.3218C176.4 81.2775 176.408 81.2415 176.425 81.2139C176.447 81.1807 176.486 81.153 176.541 81.1309C176.596 81.1032 176.666 81.0866 176.749 81.0811C176.837 81.07 176.951 81.0645 177.089 81.0645C177.222 81.0645 177.332 81.07 177.421 81.0811C177.509 81.0866 177.579 81.1032 177.628 81.1309C177.678 81.153 177.714 81.1807 177.736 81.2139C177.764 81.2415 177.778 81.2775 177.778 81.3218V88.7925ZM184.676 81.8115C184.676 81.9333 184.673 82.0356 184.667 82.1187C184.662 82.2017 184.651 82.2681 184.634 82.3179C184.618 82.3621 184.596 82.3981 184.568 82.4258C184.546 82.4479 184.513 82.459 184.468 82.459C184.424 82.459 184.369 82.4479 184.302 82.4258C184.241 82.3981 184.169 82.3732 184.086 82.3511C184.009 82.3234 183.92 82.2985 183.821 82.2764C183.721 82.2542 183.613 82.2432 183.497 82.2432C183.359 82.2432 183.223 82.2708 183.09 82.3262C182.958 82.3815 182.816 82.4728 182.667 82.6001C182.523 82.7274 182.371 82.8962 182.21 83.1064C182.05 83.3167 181.873 83.5741 181.679 83.8784V88.7925C181.679 88.8368 181.668 88.8755 181.646 88.9087C181.624 88.9364 181.588 88.9613 181.538 88.9834C181.488 89.0055 181.419 89.0221 181.331 89.0332C181.242 89.0443 181.129 89.0498 180.99 89.0498C180.857 89.0498 180.747 89.0443 180.658 89.0332C180.57 89.0221 180.498 89.0055 180.442 88.9834C180.393 88.9613 180.357 88.9364 180.334 88.9087C180.318 88.8755 180.31 88.8368 180.31 88.7925V81.3218C180.31 81.2775 180.318 81.2415 180.334 81.2139C180.351 81.1807 180.384 81.153 180.434 81.1309C180.484 81.1032 180.548 81.0866 180.625 81.0811C180.702 81.07 180.805 81.0645 180.932 81.0645C181.054 81.0645 181.153 81.07 181.231 81.0811C181.314 81.0866 181.378 81.1032 181.422 81.1309C181.466 81.153 181.497 81.1807 181.513 81.2139C181.535 81.2415 181.546 81.2775 181.546 81.3218V82.4092C181.751 82.1104 181.942 81.8669 182.119 81.6787C182.302 81.4906 182.473 81.3439 182.634 81.2388C182.794 81.1281 182.952 81.0534 183.107 81.0146C183.267 80.9704 183.428 80.9482 183.588 80.9482C183.66 80.9482 183.741 80.9538 183.829 80.9648C183.923 80.9704 184.02 80.9842 184.12 81.0063C184.219 81.0285 184.308 81.0534 184.385 81.0811C184.468 81.1087 184.526 81.1364 184.56 81.1641C184.593 81.1917 184.615 81.2194 184.626 81.2471C184.637 81.2692 184.645 81.2996 184.651 81.3384C184.662 81.3771 184.667 81.4352 184.667 81.5127C184.673 81.5846 184.676 81.6842 184.676 81.8115ZM197.417 87.481C197.417 87.5695 197.415 87.647 197.409 87.7134C197.404 87.7798 197.393 87.8379 197.376 87.8877C197.365 87.9375 197.348 87.9818 197.326 88.0205C197.304 88.0592 197.265 88.1063 197.21 88.1616C197.155 88.217 197.038 88.3027 196.861 88.4189C196.684 88.5296 196.463 88.6403 196.197 88.751C195.937 88.8561 195.636 88.9447 195.292 89.0166C194.955 89.0941 194.584 89.1328 194.18 89.1328C193.483 89.1328 192.852 89.0166 192.288 88.7842C191.729 88.5518 191.25 88.2087 190.852 87.7549C190.459 87.3011 190.154 86.7422 189.938 86.0781C189.728 85.4085 189.623 84.6393 189.623 83.7705C189.623 82.8796 189.736 82.0854 189.963 81.3882C190.196 80.6909 190.52 80.1016 190.935 79.6201C191.35 79.1331 191.845 78.7624 192.42 78.5078C193.001 78.2533 193.643 78.126 194.346 78.126C194.656 78.126 194.958 78.1564 195.251 78.2173C195.544 78.2726 195.815 78.3446 196.064 78.4331C196.313 78.5216 196.535 78.624 196.729 78.7402C196.922 78.8564 197.055 78.9533 197.127 79.0308C197.204 79.1027 197.254 79.158 197.276 79.1968C197.299 79.2355 197.315 79.2826 197.326 79.3379C197.343 79.3877 197.354 79.4486 197.359 79.5205C197.37 79.5924 197.376 79.6782 197.376 79.7778C197.376 79.8885 197.37 79.9826 197.359 80.0601C197.348 80.1375 197.332 80.2039 197.31 80.2593C197.287 80.3091 197.26 80.3478 197.227 80.3755C197.199 80.3976 197.163 80.4087 197.119 80.4087C197.041 80.4087 196.933 80.3561 196.795 80.251C196.657 80.1403 196.477 80.0213 196.255 79.894C196.04 79.7612 195.774 79.6423 195.458 79.5371C195.149 79.4264 194.775 79.3711 194.338 79.3711C193.862 79.3711 193.428 79.4679 193.035 79.6616C192.647 79.8498 192.315 80.1292 192.039 80.5C191.762 80.8708 191.546 81.3245 191.391 81.8613C191.242 82.3926 191.167 83.0013 191.167 83.6875C191.167 84.3682 191.239 84.9714 191.383 85.4971C191.532 86.0173 191.743 86.4544 192.014 86.8086C192.29 87.1572 192.628 87.4229 193.026 87.6055C193.425 87.7826 193.876 87.8711 194.379 87.8711C194.806 87.8711 195.176 87.8185 195.492 87.7134C195.813 87.6082 196.084 87.492 196.305 87.3647C196.532 87.2319 196.717 87.113 196.861 87.0078C197.005 86.9027 197.119 86.8501 197.202 86.8501C197.24 86.8501 197.274 86.8584 197.301 86.875C197.329 86.8916 197.351 86.9248 197.368 86.9746C197.384 87.0189 197.395 87.0825 197.401 87.1655C197.412 87.2485 197.417 87.3537 197.417 87.481ZM204.78 88.8008C204.78 88.8672 204.758 88.917 204.714 88.9502C204.67 88.9834 204.609 89.0083 204.531 89.0249C204.454 89.0415 204.34 89.0498 204.191 89.0498C204.047 89.0498 203.931 89.0415 203.842 89.0249C203.759 89.0083 203.698 88.9834 203.66 88.9502C203.621 88.917 203.602 88.8672 203.602 88.8008V88.0537C203.275 88.4023 202.91 88.6735 202.506 88.8672C202.107 89.0609 201.684 89.1577 201.236 89.1577C200.843 89.1577 200.486 89.1051 200.165 89C199.85 88.9004 199.578 88.7537 199.352 88.5601C199.13 88.3664 198.956 88.1284 198.829 87.8462C198.707 87.564 198.646 87.243 198.646 86.8833C198.646 86.4627 198.732 86.0975 198.903 85.7876C199.075 85.4777 199.321 85.2204 199.642 85.0156C199.963 84.8109 200.356 84.6587 200.821 84.5591C201.286 84.4539 201.809 84.4014 202.39 84.4014H203.419V83.8203C203.419 83.5326 203.389 83.278 203.328 83.0566C203.267 82.8353 203.167 82.6527 203.029 82.5088C202.896 82.3594 202.722 82.2487 202.506 82.1768C202.29 82.0993 202.024 82.0605 201.709 82.0605C201.371 82.0605 201.067 82.1021 200.796 82.1851C200.53 82.2625 200.295 82.3511 200.09 82.4507C199.891 82.5448 199.722 82.6333 199.584 82.7163C199.451 82.7938 199.352 82.8325 199.285 82.8325C199.241 82.8325 199.202 82.8215 199.169 82.7993C199.136 82.7772 199.105 82.744 199.078 82.6997C199.056 82.6554 199.039 82.6001 199.028 82.5337C199.017 82.4618 199.011 82.3843 199.011 82.3013C199.011 82.1629 199.02 82.055 199.036 81.9775C199.058 81.8945 199.105 81.8171 199.177 81.7451C199.255 81.6732 199.385 81.5902 199.567 81.4961C199.75 81.3965 199.96 81.3079 200.198 81.2305C200.436 81.1475 200.696 81.0811 200.979 81.0312C201.261 80.9759 201.546 80.9482 201.833 80.9482C202.37 80.9482 202.827 81.0091 203.203 81.1309C203.579 81.2526 203.884 81.4325 204.116 81.6704C204.349 81.9028 204.517 82.1934 204.623 82.542C204.728 82.8906 204.78 83.2974 204.78 83.7622V88.8008ZM203.419 85.3892H202.249C201.872 85.3892 201.546 85.4224 201.269 85.4888C200.992 85.5496 200.763 85.6437 200.58 85.771C200.397 85.8927 200.262 86.0422 200.173 86.2192C200.09 86.3908 200.049 86.59 200.049 86.8169C200.049 87.2043 200.171 87.5142 200.414 87.7466C200.663 87.9735 201.009 88.0869 201.452 88.0869C201.811 88.0869 202.143 87.9956 202.448 87.813C202.758 87.6304 203.081 87.3509 203.419 86.9746V85.3892ZM218.385 88.7925C218.385 88.8368 218.374 88.8755 218.352 88.9087C218.33 88.9364 218.294 88.9613 218.244 88.9834C218.194 89.0055 218.125 89.0221 218.037 89.0332C217.948 89.0443 217.837 89.0498 217.705 89.0498C217.566 89.0498 217.453 89.0443 217.364 89.0332C217.276 89.0221 217.204 89.0055 217.148 88.9834C217.099 88.9613 217.063 88.9364 217.041 88.9087C217.018 88.8755 217.007 88.8368 217.007 88.7925V84.252C217.007 83.9365 216.98 83.6488 216.924 83.3887C216.869 83.1286 216.78 82.9045 216.659 82.7163C216.537 82.5282 216.382 82.3843 216.194 82.2847C216.006 82.1851 215.784 82.1353 215.53 82.1353C215.214 82.1353 214.896 82.257 214.575 82.5005C214.26 82.744 213.911 83.1009 213.529 83.5713V88.7925C213.529 88.8368 213.518 88.8755 213.496 88.9087C213.474 88.9364 213.435 88.9613 213.38 88.9834C213.33 89.0055 213.261 89.0221 213.172 89.0332C213.084 89.0443 212.973 89.0498 212.84 89.0498C212.713 89.0498 212.602 89.0443 212.508 89.0332C212.42 89.0221 212.348 89.0055 212.292 88.9834C212.243 88.9613 212.207 88.9364 212.185 88.9087C212.168 88.8755 212.16 88.8368 212.16 88.7925V84.252C212.16 83.9365 212.129 83.6488 212.068 83.3887C212.007 83.1286 211.916 82.9045 211.794 82.7163C211.673 82.5282 211.518 82.3843 211.33 82.2847C211.147 82.1851 210.928 82.1353 210.674 82.1353C210.358 82.1353 210.04 82.257 209.719 82.5005C209.398 82.744 209.05 83.1009 208.673 83.5713V88.7925C208.673 88.8368 208.662 88.8755 208.64 88.9087C208.618 88.9364 208.582 88.9613 208.532 88.9834C208.482 89.0055 208.413 89.0221 208.325 89.0332C208.236 89.0443 208.123 89.0498 207.984 89.0498C207.852 89.0498 207.741 89.0443 207.652 89.0332C207.564 89.0221 207.492 89.0055 207.437 88.9834C207.387 88.9613 207.351 88.9364 207.329 88.9087C207.312 88.8755 207.304 88.8368 207.304 88.7925V81.3218C207.304 81.2775 207.312 81.2415 207.329 81.2139C207.345 81.1807 207.378 81.153 207.428 81.1309C207.478 81.1032 207.542 81.0866 207.619 81.0811C207.697 81.07 207.799 81.0645 207.926 81.0645C208.048 81.0645 208.148 81.07 208.225 81.0811C208.308 81.0866 208.372 81.1032 208.416 81.1309C208.46 81.153 208.491 81.1807 208.507 81.2139C208.529 81.2415 208.541 81.2775 208.541 81.3218V82.3096C208.961 81.8392 209.368 81.4961 209.761 81.2803C210.159 81.0589 210.56 80.9482 210.964 80.9482C211.274 80.9482 211.551 80.9842 211.794 81.0562C212.043 81.1281 212.262 81.2305 212.45 81.3633C212.638 81.4906 212.799 81.6455 212.932 81.8281C213.064 82.0052 213.175 82.2044 213.264 82.4258C213.513 82.1546 213.748 81.925 213.969 81.7368C214.196 81.5487 214.412 81.3965 214.617 81.2803C214.827 81.1641 215.029 81.0811 215.223 81.0312C215.422 80.9759 215.621 80.9482 215.82 80.9482C216.302 80.9482 216.706 81.034 217.032 81.2056C217.359 81.3716 217.622 81.5957 217.821 81.8779C218.026 82.1602 218.169 82.4922 218.252 82.874C218.341 83.2503 218.385 83.6488 218.385 84.0693V88.7925ZM227.757 84.9409C227.757 85.5939 227.685 86.1805 227.541 86.7007C227.403 87.2209 227.195 87.6636 226.918 88.0288C226.647 88.3885 226.31 88.668 225.906 88.8672C225.502 89.0609 225.04 89.1577 224.52 89.1577C224.298 89.1577 224.093 89.1356 223.905 89.0913C223.717 89.047 223.532 88.9779 223.349 88.8838C223.172 88.7897 222.995 88.6707 222.818 88.5269C222.641 88.383 222.453 88.2142 222.253 88.0205V91.7559C222.253 91.8001 222.242 91.8389 222.22 91.8721C222.198 91.9053 222.162 91.9329 222.112 91.9551C222.062 91.9772 221.993 91.9938 221.905 92.0049C221.816 92.016 221.703 92.0215 221.564 92.0215C221.432 92.0215 221.321 92.016 221.232 92.0049C221.144 91.9938 221.072 91.9772 221.017 91.9551C220.967 91.9329 220.931 91.9053 220.909 91.8721C220.892 91.8389 220.884 91.8001 220.884 91.7559V81.3218C220.884 81.272 220.892 81.2332 220.909 81.2056C220.925 81.1724 220.958 81.1447 221.008 81.1226C221.058 81.1004 221.122 81.0866 221.199 81.0811C221.277 81.07 221.371 81.0645 221.481 81.0645C221.598 81.0645 221.692 81.07 221.764 81.0811C221.841 81.0866 221.905 81.1004 221.955 81.1226C222.004 81.1447 222.038 81.1724 222.054 81.2056C222.076 81.2332 222.087 81.272 222.087 81.3218V82.3262C222.314 82.0938 222.533 81.8918 222.743 81.7202C222.953 81.5487 223.164 81.4076 223.374 81.2969C223.59 81.1807 223.808 81.0949 224.03 81.0396C224.257 80.9787 224.495 80.9482 224.744 80.9482C225.286 80.9482 225.748 81.0534 226.13 81.2637C226.512 81.474 226.822 81.7617 227.06 82.127C227.303 82.4922 227.48 82.9183 227.591 83.4053C227.701 83.8867 227.757 84.3986 227.757 84.9409ZM226.312 85.0986C226.312 84.7168 226.282 84.3488 226.221 83.9946C226.166 83.6349 226.066 83.3167 225.922 83.04C225.784 82.7633 225.596 82.542 225.358 82.376C225.12 82.21 224.824 82.127 224.47 82.127C224.293 82.127 224.118 82.1546 223.947 82.21C223.775 82.2598 223.601 82.3428 223.424 82.459C223.247 82.5697 223.061 82.7191 222.868 82.9072C222.674 83.0898 222.469 83.3167 222.253 83.5879V86.5596C222.63 87.0189 222.987 87.3703 223.324 87.6138C223.662 87.8573 224.016 87.979 224.387 87.979C224.73 87.979 225.023 87.896 225.267 87.73C225.516 87.564 225.715 87.3426 225.864 87.0659C226.019 86.7892 226.133 86.4793 226.205 86.1362C226.277 85.7931 226.312 85.4473 226.312 85.0986ZM236.215 88.7925C236.215 88.8368 236.204 88.8755 236.182 88.9087C236.166 88.9364 236.132 88.9613 236.083 88.9834C236.033 89.0055 235.966 89.0221 235.883 89.0332C235.806 89.0443 235.709 89.0498 235.593 89.0498C235.465 89.0498 235.36 89.0443 235.277 89.0332C235.2 89.0221 235.136 89.0055 235.086 88.9834C235.042 88.9613 235.012 88.9364 234.995 88.9087C234.979 88.8755 234.97 88.8368 234.97 88.7925V87.8047C234.544 88.2751 234.124 88.6182 233.708 88.834C233.293 89.0498 232.873 89.1577 232.447 89.1577C231.949 89.1577 231.528 89.0747 231.185 88.9087C230.847 88.7427 230.574 88.5186 230.363 88.2363C230.153 87.9486 230.001 87.6165 229.907 87.2402C229.818 86.8584 229.774 86.3963 229.774 85.854V81.3218C229.774 81.2775 229.782 81.2415 229.799 81.2139C229.821 81.1807 229.86 81.153 229.915 81.1309C229.97 81.1032 230.042 81.0866 230.131 81.0811C230.219 81.07 230.33 81.0645 230.463 81.0645C230.596 81.0645 230.706 81.07 230.795 81.0811C230.883 81.0866 230.953 81.1032 231.002 81.1309C231.058 81.153 231.097 81.1807 231.119 81.2139C231.141 81.2415 231.152 81.2775 231.152 81.3218V85.6714C231.152 86.1086 231.182 86.46 231.243 86.7256C231.31 86.9857 231.406 87.2098 231.534 87.3979C231.667 87.5806 231.833 87.7244 232.032 87.8296C232.231 87.9292 232.463 87.979 232.729 87.979C233.072 87.979 233.412 87.8573 233.75 87.6138C234.093 87.3703 234.456 87.0133 234.837 86.543V81.3218C234.837 81.2775 234.846 81.2415 234.862 81.2139C234.884 81.1807 234.923 81.153 234.979 81.1309C235.034 81.1032 235.103 81.0866 235.186 81.0811C235.275 81.07 235.388 81.0645 235.526 81.0645C235.659 81.0645 235.77 81.07 235.858 81.0811C235.947 81.0866 236.016 81.1032 236.066 81.1309C236.116 81.153 236.152 81.1807 236.174 81.2139C236.201 81.2415 236.215 81.2775 236.215 81.3218V88.7925ZM243.437 86.7588C243.437 87.1406 243.365 87.481 243.221 87.7798C243.083 88.0786 242.884 88.3304 242.624 88.5352C242.363 88.7399 242.054 88.8949 241.694 89C241.334 89.1051 240.938 89.1577 240.507 89.1577C240.241 89.1577 239.987 89.1356 239.743 89.0913C239.505 89.0526 239.289 89.0028 239.096 88.9419C238.908 88.8755 238.747 88.8091 238.614 88.7427C238.481 88.6707 238.385 88.6071 238.324 88.5518C238.263 88.4964 238.219 88.4189 238.191 88.3193C238.163 88.2197 238.149 88.0841 238.149 87.9126C238.149 87.8075 238.155 87.7189 238.166 87.647C238.177 87.575 238.191 87.5169 238.208 87.4727C238.224 87.4284 238.246 87.3979 238.274 87.3813C238.307 87.3592 238.343 87.3481 238.382 87.3481C238.443 87.3481 238.531 87.3869 238.647 87.4644C238.769 87.5363 238.916 87.6165 239.087 87.7051C239.264 87.7936 239.472 87.8766 239.71 87.9541C239.948 88.026 240.222 88.062 240.532 88.062C240.764 88.062 240.974 88.0371 241.163 87.9873C241.351 87.9375 241.514 87.8656 241.652 87.7715C241.791 87.6719 241.896 87.5474 241.968 87.3979C242.045 87.2485 242.084 87.0715 242.084 86.8667C242.084 86.6564 242.029 86.4793 241.918 86.3354C241.813 86.1916 241.672 86.0643 241.495 85.9536C241.318 85.8429 241.118 85.7461 240.897 85.6631C240.676 85.5745 240.446 85.4832 240.208 85.3892C239.976 85.2951 239.746 85.1899 239.519 85.0737C239.298 84.952 239.098 84.8053 238.921 84.6338C238.744 84.4622 238.6 84.2575 238.49 84.0195C238.385 83.7816 238.332 83.4966 238.332 83.1646C238.332 82.8713 238.387 82.5918 238.498 82.3262C238.614 82.055 238.786 81.8198 239.013 81.6206C239.24 81.4159 239.522 81.2526 239.859 81.1309C240.202 81.0091 240.601 80.9482 241.055 80.9482C241.254 80.9482 241.453 80.9648 241.652 80.998C241.852 81.0312 242.031 81.0728 242.192 81.1226C242.352 81.1724 242.488 81.2277 242.599 81.2886C242.715 81.3439 242.801 81.3937 242.856 81.438C242.917 81.4823 242.956 81.521 242.972 81.5542C242.994 81.5874 243.008 81.6261 243.014 81.6704C243.025 81.7091 243.033 81.759 243.039 81.8198C243.05 81.8807 243.055 81.9554 243.055 82.0439C243.055 82.138 243.05 82.221 243.039 82.293C243.033 82.3594 243.019 82.4147 242.997 82.459C242.98 82.5033 242.958 82.5365 242.931 82.5586C242.903 82.5752 242.873 82.5835 242.839 82.5835C242.79 82.5835 242.718 82.5531 242.624 82.4922C242.529 82.4313 242.408 82.3677 242.258 82.3013C242.109 82.2293 241.932 82.1629 241.727 82.1021C241.528 82.0412 241.298 82.0107 241.038 82.0107C240.806 82.0107 240.601 82.0384 240.424 82.0938C240.247 82.1436 240.1 82.2183 239.984 82.3179C239.873 82.4119 239.787 82.5254 239.727 82.6582C239.671 82.791 239.644 82.9349 239.644 83.0898C239.644 83.3057 239.699 83.4883 239.81 83.6377C239.92 83.7816 240.064 83.9089 240.241 84.0195C240.418 84.1302 240.62 84.2298 240.847 84.3184C241.074 84.4069 241.304 84.4982 241.536 84.5923C241.774 84.6864 242.007 84.7915 242.233 84.9077C242.466 85.0239 242.671 85.165 242.848 85.3311C243.025 85.4971 243.166 85.6963 243.271 85.9287C243.382 86.1611 243.437 86.4378 243.437 86.7588ZM255.39 88.4106C255.39 88.5103 255.385 88.5988 255.374 88.6763C255.362 88.7482 255.343 88.8091 255.315 88.8589C255.288 88.9087 255.255 88.9447 255.216 88.9668C255.183 88.9889 255.144 89 255.1 89H249.945C249.818 89 249.696 88.9585 249.58 88.8755C249.469 88.7869 249.414 88.6348 249.414 88.4189V78.8398C249.414 78.624 249.469 78.4746 249.58 78.3916C249.696 78.3031 249.818 78.2588 249.945 78.2588H255.042C255.086 78.2588 255.125 78.2699 255.158 78.292C255.196 78.3141 255.227 78.3501 255.249 78.3999C255.271 78.4497 255.288 78.5133 255.299 78.5908C255.315 78.6628 255.324 78.7541 255.324 78.8647C255.324 78.9644 255.315 79.0529 255.299 79.1304C255.288 79.2023 255.271 79.2632 255.249 79.313C255.227 79.3573 255.196 79.3905 255.158 79.4126C255.125 79.4347 255.086 79.4458 255.042 79.4458H250.841V82.8159H254.444C254.488 82.8159 254.527 82.8298 254.56 82.8574C254.599 82.8796 254.629 82.9128 254.651 82.957C254.679 83.0013 254.698 83.0622 254.709 83.1396C254.721 83.2171 254.726 83.3084 254.726 83.4136C254.726 83.5132 254.721 83.599 254.709 83.6709C254.698 83.7428 254.679 83.8009 254.651 83.8452C254.629 83.8895 254.599 83.9227 254.56 83.9448C254.527 83.9614 254.488 83.9697 254.444 83.9697H250.841V87.813H255.1C255.144 87.813 255.183 87.8241 255.216 87.8462C255.255 87.8683 255.288 87.9043 255.315 87.9541C255.343 87.9984 255.362 88.0592 255.374 88.1367C255.385 88.2087 255.39 88.3 255.39 88.4106ZM263.284 81.3052C263.284 81.3273 263.281 81.3522 263.276 81.3799C263.276 81.402 263.273 81.4269 263.268 81.4546C263.262 81.4823 263.254 81.5127 263.243 81.5459C263.237 81.5791 263.229 81.6151 263.218 81.6538L260.669 88.751C260.647 88.8118 260.617 88.8617 260.578 88.9004C260.545 88.9391 260.492 88.9696 260.42 88.9917C260.348 89.0138 260.257 89.0277 260.146 89.0332C260.036 89.0443 259.897 89.0498 259.731 89.0498C259.565 89.0498 259.427 89.0443 259.316 89.0332C259.206 89.0221 259.114 89.0055 259.042 88.9834C258.976 88.9613 258.924 88.9308 258.885 88.8921C258.846 88.8534 258.816 88.8063 258.793 88.751L256.253 81.6538C256.231 81.5874 256.212 81.5293 256.195 81.4795C256.184 81.4297 256.176 81.3937 256.17 81.3716C256.17 81.3439 256.17 81.3218 256.17 81.3052C256.17 81.2609 256.181 81.2222 256.204 81.189C256.226 81.1558 256.262 81.1309 256.312 81.1143C256.367 81.0921 256.436 81.0783 256.519 81.0728C256.608 81.0672 256.715 81.0645 256.843 81.0645C257.003 81.0645 257.131 81.07 257.225 81.0811C257.324 81.0866 257.399 81.1004 257.449 81.1226C257.504 81.1447 257.543 81.1724 257.565 81.2056C257.593 81.2388 257.618 81.2803 257.64 81.3301L259.748 87.4893L259.781 87.5889L259.806 87.4893L261.89 81.3301C261.901 81.2803 261.92 81.2388 261.948 81.2056C261.975 81.1724 262.014 81.1447 262.064 81.1226C262.119 81.1004 262.191 81.0866 262.28 81.0811C262.374 81.07 262.496 81.0645 262.645 81.0645C262.772 81.0645 262.877 81.0672 262.96 81.0728C263.043 81.0783 263.107 81.0921 263.151 81.1143C263.201 81.1364 263.234 81.1641 263.251 81.1973C263.273 81.2249 263.284 81.2609 263.284 81.3052ZM271.054 84.7334C271.054 84.9492 270.998 85.1042 270.888 85.1982C270.783 85.2868 270.661 85.3311 270.522 85.3311H265.625C265.625 85.7461 265.667 86.1196 265.75 86.4517C265.833 86.7837 265.971 87.0687 266.165 87.3066C266.358 87.5446 266.61 87.7272 266.92 87.8545C267.23 87.9818 267.609 88.0454 268.057 88.0454C268.411 88.0454 268.727 88.0177 269.003 87.9624C269.28 87.9015 269.518 87.8351 269.717 87.7632C269.922 87.6912 270.088 87.6276 270.215 87.5723C270.348 87.5114 270.448 87.481 270.514 87.481C270.553 87.481 270.586 87.492 270.614 87.5142C270.647 87.5308 270.672 87.5584 270.688 87.5972C270.705 87.6359 270.716 87.6912 270.722 87.7632C270.733 87.8296 270.738 87.9126 270.738 88.0122C270.738 88.0841 270.736 88.1478 270.73 88.2031C270.724 88.2529 270.716 88.3 270.705 88.3442C270.7 88.383 270.686 88.4189 270.664 88.4521C270.647 88.4854 270.622 88.5186 270.589 88.5518C270.561 88.5794 270.473 88.6292 270.323 88.7012C270.174 88.7676 269.98 88.834 269.742 88.9004C269.504 88.9668 269.228 89.0249 268.912 89.0747C268.602 89.13 268.27 89.1577 267.916 89.1577C267.302 89.1577 266.762 89.0719 266.297 88.9004C265.838 88.7288 265.451 88.4743 265.135 88.1367C264.82 87.7992 264.582 87.3758 264.421 86.8667C264.261 86.3576 264.181 85.7655 264.181 85.0903C264.181 84.4484 264.264 83.8729 264.43 83.3638C264.596 82.8491 264.834 82.4147 265.144 82.0605C265.459 81.7008 265.838 81.4269 266.281 81.2388C266.723 81.0451 267.219 80.9482 267.767 80.9482C268.353 80.9482 268.851 81.0423 269.261 81.2305C269.676 81.4186 270.016 81.6732 270.282 81.9941C270.547 82.3096 270.741 82.6831 270.863 83.1147C270.99 83.5409 271.054 83.9974 271.054 84.4844V84.7334ZM269.676 84.3267C269.692 83.6073 269.532 83.0428 269.194 82.6333C268.862 82.2238 268.367 82.019 267.708 82.019C267.371 82.019 267.075 82.0827 266.82 82.21C266.566 82.3372 266.353 82.506 266.181 82.7163C266.01 82.9266 265.877 83.1729 265.783 83.4551C265.689 83.7318 265.636 84.0223 265.625 84.3267H269.676ZM279.579 88.7925C279.579 88.8368 279.568 88.8755 279.545 88.9087C279.523 88.9364 279.487 88.9613 279.438 88.9834C279.388 89.0055 279.319 89.0221 279.23 89.0332C279.141 89.0443 279.031 89.0498 278.898 89.0498C278.76 89.0498 278.646 89.0443 278.558 89.0332C278.469 89.0221 278.4 89.0055 278.35 88.9834C278.3 88.9613 278.264 88.9364 278.242 88.9087C278.22 88.8755 278.209 88.8368 278.209 88.7925V84.418C278.209 83.9919 278.176 83.6488 278.109 83.3887C278.043 83.1286 277.946 82.9045 277.819 82.7163C277.692 82.5282 277.526 82.3843 277.321 82.2847C277.122 82.1851 276.889 82.1353 276.624 82.1353C276.28 82.1353 275.937 82.257 275.594 82.5005C275.251 82.744 274.891 83.1009 274.515 83.5713V88.7925C274.515 88.8368 274.504 88.8755 274.482 88.9087C274.46 88.9364 274.424 88.9613 274.374 88.9834C274.324 89.0055 274.255 89.0221 274.167 89.0332C274.078 89.0443 273.965 89.0498 273.826 89.0498C273.693 89.0498 273.583 89.0443 273.494 89.0332C273.406 89.0221 273.334 89.0055 273.278 88.9834C273.229 88.9613 273.193 88.9364 273.17 88.9087C273.154 88.8755 273.146 88.8368 273.146 88.7925V81.3218C273.146 81.2775 273.154 81.2415 273.17 81.2139C273.187 81.1807 273.22 81.153 273.27 81.1309C273.32 81.1032 273.383 81.0866 273.461 81.0811C273.538 81.07 273.641 81.0645 273.768 81.0645C273.89 81.0645 273.989 81.07 274.067 81.0811C274.15 81.0866 274.214 81.1032 274.258 81.1309C274.302 81.153 274.333 81.1807 274.349 81.2139C274.371 81.2415 274.382 81.2775 274.382 81.3218V82.3096C274.803 81.8392 275.221 81.4961 275.636 81.2803C276.056 81.0589 276.48 80.9482 276.906 80.9482C277.404 80.9482 277.822 81.034 278.159 81.2056C278.502 81.3716 278.779 81.5957 278.989 81.8779C279.2 82.1602 279.349 82.4922 279.438 82.874C279.532 83.2503 279.579 83.7041 279.579 84.2354V88.7925ZM285.812 88.2446C285.812 88.4051 285.801 88.5324 285.779 88.6265C285.757 88.7205 285.724 88.7897 285.68 88.834C285.635 88.8783 285.569 88.9198 285.48 88.9585C285.392 88.9972 285.29 89.0277 285.173 89.0498C285.063 89.0775 284.944 89.0996 284.816 89.1162C284.689 89.1328 284.562 89.1411 284.435 89.1411C284.047 89.1411 283.715 89.0913 283.438 88.9917C283.162 88.8866 282.935 88.7316 282.758 88.5269C282.581 88.3166 282.451 88.0537 282.368 87.7383C282.29 87.4173 282.251 87.041 282.251 86.6094V82.2432H281.206C281.123 82.2432 281.056 82.1989 281.006 82.1104C280.957 82.0218 280.932 81.8779 280.932 81.6787C280.932 81.5736 280.937 81.485 280.948 81.4131C280.965 81.3411 280.984 81.283 281.006 81.2388C281.028 81.189 281.056 81.1558 281.089 81.1392C281.128 81.117 281.17 81.106 281.214 81.106H282.251V79.3296C282.251 79.2909 282.26 79.2549 282.276 79.2217C282.299 79.1885 282.334 79.1608 282.384 79.1387C282.44 79.111 282.512 79.0916 282.6 79.0806C282.689 79.0695 282.799 79.064 282.932 79.064C283.07 79.064 283.184 79.0695 283.272 79.0806C283.361 79.0916 283.43 79.111 283.48 79.1387C283.53 79.1608 283.566 79.1885 283.588 79.2217C283.61 79.2549 283.621 79.2909 283.621 79.3296V81.106H285.539C285.583 81.106 285.622 81.117 285.655 81.1392C285.688 81.1558 285.716 81.189 285.738 81.2388C285.765 81.283 285.785 81.3411 285.796 81.4131C285.807 81.485 285.812 81.5736 285.812 81.6787C285.812 81.8779 285.788 82.0218 285.738 82.1104C285.688 82.1989 285.622 82.2432 285.539 82.2432H283.621V86.4102C283.621 86.9248 283.696 87.3149 283.845 87.5806C284 87.8407 284.274 87.9707 284.667 87.9707C284.794 87.9707 284.908 87.9596 285.007 87.9375C285.107 87.9098 285.195 87.8822 285.273 87.8545C285.35 87.8268 285.417 87.8019 285.472 87.7798C285.528 87.7521 285.577 87.7383 285.622 87.7383C285.649 87.7383 285.674 87.7466 285.696 87.7632C285.724 87.7743 285.743 87.7992 285.754 87.8379C285.771 87.8766 285.785 87.9292 285.796 87.9956C285.807 88.062 285.812 88.145 285.812 88.2446ZM292.312 86.7588C292.312 87.1406 292.24 87.481 292.096 87.7798C291.958 88.0786 291.759 88.3304 291.499 88.5352C291.238 88.7399 290.929 88.8949 290.569 89C290.209 89.1051 289.813 89.1577 289.382 89.1577C289.116 89.1577 288.862 89.1356 288.618 89.0913C288.38 89.0526 288.164 89.0028 287.971 88.9419C287.783 88.8755 287.622 88.8091 287.489 88.7427C287.356 88.6707 287.26 88.6071 287.199 88.5518C287.138 88.4964 287.094 88.4189 287.066 88.3193C287.038 88.2197 287.024 88.0841 287.024 87.9126C287.024 87.8075 287.03 87.7189 287.041 87.647C287.052 87.575 287.066 87.5169 287.083 87.4727C287.099 87.4284 287.121 87.3979 287.149 87.3813C287.182 87.3592 287.218 87.3481 287.257 87.3481C287.318 87.3481 287.406 87.3869 287.522 87.4644C287.644 87.5363 287.791 87.6165 287.962 87.7051C288.139 87.7936 288.347 87.8766 288.585 87.9541C288.823 88.026 289.097 88.062 289.407 88.062C289.639 88.062 289.849 88.0371 290.038 87.9873C290.226 87.9375 290.389 87.8656 290.527 87.7715C290.666 87.6719 290.771 87.5474 290.843 87.3979C290.92 87.2485 290.959 87.0715 290.959 86.8667C290.959 86.6564 290.904 86.4793 290.793 86.3354C290.688 86.1916 290.547 86.0643 290.37 85.9536C290.193 85.8429 289.993 85.7461 289.772 85.6631C289.551 85.5745 289.321 85.4832 289.083 85.3892C288.851 85.2951 288.621 85.1899 288.394 85.0737C288.173 84.952 287.973 84.8053 287.796 84.6338C287.619 84.4622 287.475 84.2575 287.365 84.0195C287.26 83.7816 287.207 83.4966 287.207 83.1646C287.207 82.8713 287.262 82.5918 287.373 82.3262C287.489 82.055 287.661 81.8198 287.888 81.6206C288.115 81.4159 288.397 81.2526 288.734 81.1309C289.077 81.0091 289.476 80.9482 289.93 80.9482C290.129 80.9482 290.328 80.9648 290.527 80.998C290.727 81.0312 290.906 81.0728 291.067 81.1226C291.227 81.1724 291.363 81.2277 291.474 81.2886C291.59 81.3439 291.676 81.3937 291.731 81.438C291.792 81.4823 291.831 81.521 291.847 81.5542C291.869 81.5874 291.883 81.6261 291.889 81.6704C291.9 81.7091 291.908 81.759 291.914 81.8198C291.925 81.8807 291.93 81.9554 291.93 82.0439C291.93 82.138 291.925 82.221 291.914 82.293C291.908 82.3594 291.894 82.4147 291.872 82.459C291.855 82.5033 291.833 82.5365 291.806 82.5586C291.778 82.5752 291.748 82.5835 291.714 82.5835C291.665 82.5835 291.593 82.5531 291.499 82.4922C291.404 82.4313 291.283 82.3677 291.133 82.3013C290.984 82.2293 290.807 82.1629 290.602 82.1021C290.403 82.0412 290.173 82.0107 289.913 82.0107C289.681 82.0107 289.476 82.0384 289.299 82.0938C289.122 82.1436 288.975 82.2183 288.859 82.3179C288.748 82.4119 288.662 82.5254 288.602 82.6582C288.546 82.791 288.519 82.9349 288.519 83.0898C288.519 83.3057 288.574 83.4883 288.685 83.6377C288.795 83.7816 288.939 83.9089 289.116 84.0195C289.293 84.1302 289.495 84.2298 289.722 84.3184C289.949 84.4069 290.179 84.4982 290.411 84.5923C290.649 84.6864 290.882 84.7915 291.108 84.9077C291.341 85.0239 291.546 85.165 291.723 85.3311C291.9 85.4971 292.041 85.6963 292.146 85.9287C292.257 86.1611 292.312 86.4378 292.312 86.7588Z" fill="black"/>
</svg>
