<svg width="74" height="18" viewBox="0 0 74 18" fill="none" xmlns="http://www.w3.org/2000/svg">
<path d="M11.9969 14V4.2H15.4969C16.6262 4.2 17.5595 4.41467 18.2969 4.844C19.0435 5.27333 19.5989 5.85667 19.9629 6.594C20.3362 7.33133 20.5229 8.17133 20.5229 9.114C20.5229 10.0473 20.3362 10.8827 19.9629 11.62C19.5989 12.3573 19.0435 12.9407 18.2969 13.37C17.5595 13.79 16.6262 14 15.4969 14H11.9969ZM15.2589 5.964H13.9569V12.236H15.2589C16.0335 12.236 16.6589 12.1007 17.1349 11.83C17.6109 11.55 17.9562 11.1767 18.1709 10.71C18.3855 10.234 18.4929 9.702 18.4929 9.114C18.4929 8.51667 18.3855 7.98467 18.1709 7.518C17.9562 7.042 17.6109 6.664 17.1349 6.384C16.6589 6.104 16.0335 5.964 15.2589 5.964ZM24.7765 14.182C24.0298 14.182 23.3718 14.0093 22.8025 13.664C22.2331 13.3187 21.7898 12.8613 21.4725 12.292C21.1645 11.7133 21.0105 11.074 21.0105 10.374C21.0105 9.674 21.1738 9.03467 21.5005 8.456C21.8271 7.868 22.2705 7.40133 22.8305 7.056C23.3998 6.71067 24.0485 6.538 24.7765 6.538C25.5045 6.538 26.1438 6.71067 26.6945 7.056C27.2545 7.40133 27.6885 7.868 27.9965 8.456C28.3138 9.03467 28.4725 9.674 28.4725 10.374C28.4725 10.4767 28.4678 10.584 28.4585 10.696C28.4491 10.808 28.4351 10.9247 28.4165 11.046H22.9705C23.0731 11.4753 23.2785 11.8253 23.5865 12.096C23.9038 12.3667 24.3005 12.502 24.7765 12.502C25.1871 12.502 25.5418 12.4087 25.8405 12.222C26.1485 12.0353 26.3865 11.802 26.5545 11.522L28.0245 12.628C27.7351 13.0853 27.3011 13.4587 26.7225 13.748C26.1438 14.0373 25.4951 14.182 24.7765 14.182ZM24.7485 8.162C24.3005 8.162 23.9178 8.29733 23.6005 8.568C23.2831 8.83867 23.0731 9.19333 22.9705 9.632H26.5685C26.4658 9.23067 26.2511 8.88533 25.9245 8.596C25.6071 8.30667 25.2151 8.162 24.7485 8.162ZM32.6925 14.182C31.9458 14.182 31.2878 14.0093 30.7185 13.664C30.1492 13.3187 29.7058 12.8613 29.3885 12.292C29.0805 11.7133 28.9265 11.074 28.9265 10.374C28.9265 9.674 29.0898 9.03467 29.4165 8.456C29.7432 7.868 30.1865 7.40133 30.7465 7.056C31.3158 6.71067 31.9645 6.538 32.6925 6.538C33.4205 6.538 34.0598 6.71067 34.6105 7.056C35.1705 7.40133 35.6045 7.868 35.9125 8.456C36.2298 9.03467 36.3885 9.674 36.3885 10.374C36.3885 10.4767 36.3838 10.584 36.3745 10.696C36.3652 10.808 36.3512 10.9247 36.3325 11.046H30.8865C30.9892 11.4753 31.1945 11.8253 31.5025 12.096C31.8198 12.3667 32.2165 12.502 32.6925 12.502C33.1032 12.502 33.4578 12.4087 33.7565 12.222C34.0645 12.0353 34.3025 11.802 34.4705 11.522L35.9405 12.628C35.6512 13.0853 35.2172 13.4587 34.6385 13.748C34.0598 14.0373 33.4112 14.182 32.6925 14.182ZM32.6645 8.162C32.2165 8.162 31.8338 8.29733 31.5165 8.568C31.1992 8.83867 30.9892 9.19333 30.8865 9.632H34.4845C34.3818 9.23067 34.1672 8.88533 33.8405 8.596C33.5232 8.30667 33.1312 8.162 32.6645 8.162ZM37.2182 16.8V6.72H39.0802V7.896C39.2762 7.49467 39.5515 7.17267 39.9062 6.93C40.2702 6.68733 40.7695 6.566 41.4042 6.566C41.9082 6.566 42.3749 6.66867 42.8042 6.874C43.2429 7.07 43.6255 7.34533 43.9522 7.7C44.2789 8.04533 44.5355 8.45133 44.7222 8.918C44.9089 9.37533 45.0022 9.86533 45.0022 10.388C45.0022 11.088 44.8389 11.7273 44.5122 12.306C44.1949 12.8753 43.7655 13.3327 43.2242 13.678C42.6829 14.014 42.0762 14.182 41.4042 14.182C40.7789 14.182 40.2889 14.07 39.9342 13.846C39.5795 13.6127 39.3042 13.3047 39.1082 12.922V16.8H37.2182ZM41.0962 12.474C41.4975 12.474 41.8475 12.376 42.1462 12.18C42.4542 11.984 42.6922 11.7273 42.8602 11.41C43.0282 11.0833 43.1122 10.738 43.1122 10.374C43.1122 9.99133 43.0282 9.64133 42.8602 9.324C42.6922 9.00667 42.4542 8.75467 42.1462 8.568C41.8475 8.372 41.4975 8.274 41.0962 8.274C40.6855 8.274 40.3262 8.372 40.0182 8.568C39.7102 8.764 39.4722 9.02067 39.3042 9.338C39.1362 9.65533 39.0522 10.0053 39.0522 10.388C39.0522 10.7613 39.1362 11.1067 39.3042 11.424C39.4722 11.7413 39.7102 11.998 40.0182 12.194C40.3262 12.3807 40.6855 12.474 41.0962 12.474ZM45.9852 14V4.2H47.4692L52.2432 9.87C52.3552 10.0007 52.4625 10.136 52.5652 10.276C52.6772 10.4067 52.7845 10.542 52.8872 10.682C52.8592 10.4767 52.8405 10.234 52.8312 9.954C52.8218 9.66467 52.8172 9.37533 52.8172 9.086V4.2H54.6092V14H53.3352L48.3792 8.106C48.2672 7.97533 48.1552 7.84467 48.0432 7.714C47.9405 7.574 47.8378 7.434 47.7352 7.294C47.7632 7.49933 47.7818 7.74667 47.7912 8.036C47.8005 8.316 47.8052 8.60067 47.8052 8.89V14H45.9852ZM59.1846 14.182C58.522 14.182 57.9153 14.014 57.3646 13.678C56.8233 13.3327 56.3893 12.8753 56.0626 12.306C55.7453 11.7273 55.5866 11.088 55.5866 10.388C55.5866 9.86533 55.68 9.37533 55.8666 8.918C56.0533 8.45133 56.31 8.04533 56.6366 7.7C56.9633 7.34533 57.3413 7.07 57.7706 6.874C58.2093 6.66867 58.6806 6.566 59.1846 6.566C59.8193 6.566 60.314 6.68733 60.6686 6.93C61.0233 7.16333 61.2986 7.476 61.4946 7.868V6.72H63.3706V14H61.5366V12.81C61.3406 13.2207 61.0606 13.552 60.6966 13.804C60.342 14.056 59.838 14.182 59.1846 14.182ZM59.4926 12.474C59.9126 12.474 60.272 12.3807 60.5706 12.194C60.8786 11.998 61.1166 11.7413 61.2846 11.424C61.4526 11.1067 61.5366 10.7613 61.5366 10.388C61.5366 10.0053 61.4526 9.65533 61.2846 9.338C61.1166 9.02067 60.8786 8.764 60.5706 8.568C60.272 8.372 59.9126 8.274 59.4926 8.274C59.0913 8.274 58.7366 8.372 58.4286 8.568C58.13 8.75467 57.8966 9.00667 57.7286 9.324C57.5606 9.64133 57.4766 9.99133 57.4766 10.374C57.4766 10.738 57.5606 11.0833 57.7286 11.41C57.8966 11.7273 58.13 11.984 58.4286 12.18C58.7366 12.376 59.0913 12.474 59.4926 12.474ZM64.6336 14V4.2H66.1176L70.8916 9.87C71.0036 10.0007 71.1109 10.136 71.2136 10.276C71.3256 10.4067 71.4329 10.542 71.5356 10.682C71.5076 10.4767 71.4889 10.234 71.4796 9.954C71.4703 9.66467 71.4656 9.37533 71.4656 9.086V4.2H73.2576V14H71.9836L67.0276 8.106C66.9156 7.97533 66.8036 7.84467 66.6916 7.714C66.5889 7.574 66.4863 7.434 66.3836 7.294C66.4116 7.49933 66.4303 7.74667 66.4396 8.036C66.4489 8.316 66.4536 8.60067 66.4536 8.89V14H64.6336Z" fill="black"/>
<circle cx="2.5" cy="8.5" r="2" stroke="black"/>
<circle cx="9.5" cy="4.5" r="2" stroke="black"/>
<circle cx="8.5" cy="12.5" r="2" stroke="black"/>
<line x1="3.77639" y1="7.55279" x2="7.77639" y2="5.55279" stroke="black"/>
<line x1="4.27735" y1="9.58397" x2="7.27735" y2="11.584" stroke="black"/>
</svg>
